<svg width="24" height="24" viewBox="0 0 24 24" fill="none" xmlns="http://www.w3.org/2000/svg">
<path d="M4.12502 6.0249C4.12502 5.42725 4.61721 4.8999 5.25002 4.8999H18.75C19.3477 4.8999 19.875 5.42725 19.875 6.0249C19.875 6.65771 19.3477 7.1499 18.75 7.1499H5.25002C4.61721 7.1499 4.12502 6.65771 4.12502 6.0249ZM4.12502 11.6499C4.12502 11.0522 4.61721 10.5249 5.25002 10.5249H18.75C19.3477 10.5249 19.875 11.0522 19.875 11.6499C19.875 12.2827 19.3477 12.7749 18.75 12.7749H5.25002C4.61721 12.7749 4.12502 12.2827 4.12502 11.6499ZM19.875 17.2749C19.875 17.9077 19.3477 18.3999 18.75 18.3999H5.25002C4.61721 18.3999 4.12502 17.9077 4.12502 17.2749C4.12502 16.6772 4.61721 16.1499 5.25002 16.1499H18.75C19.3477 16.1499 19.875 16.6772 19.875 17.2749Z" fill="#9022FF"/>
</svg>
